<svg xmlns="http://www.w3.org/2000/svg" xmlns:xlink="http://www.w3.org/1999/xlink" version="1.1" id="Layer_1" x="0px" y="0px" enable-background="new 0 0 835 364" xml:space="preserve" viewBox="109.4 102.16 169.39 171.93">
<path fill="#E5583A" opacity="1.000000" stroke="none" d=" M156.999588,121.049011   C157.530380,120.825775 158.061172,120.602539 159.137100,120.103897   C168.488205,114.661140 177.294159,109.493813 186.100128,104.326477   C187.289383,103.778191 188.478638,103.229897 190.326492,102.401611   C193.297485,102.135429 195.609848,102.149246 197.922226,102.163055   C202.010757,104.578568 206.099289,106.994080 210.877228,109.816895   C188.247757,122.859200 166.225327,135.551636 143.305847,148.761078   C149.035278,152.084885 154.140076,155.298843 159.519897,157.955963   C160.606506,158.492645 162.865631,157.149490 164.362122,156.287476   C184.110748,144.911606 203.868210,133.548965 223.491013,121.958794   C226.802094,120.003105 229.208191,119.984344 232.515106,121.955040   C245.238785,129.537506 258.184265,136.746796 270.980865,144.208679   C273.216553,145.512329 275.133484,147.362625 277.800903,149.427414   C265.867645,156.344345 254.685623,162.848801 243.481339,169.314606   C228.205246,178.130203 212.873993,186.851303 197.662735,195.777069   C195.030441,197.321671 193.015900,197.498474 190.436691,195.802444   C186.444336,193.177185 182.223618,190.899231 177.278900,187.991272   C200.023056,174.793716 222.085083,161.991974 244.916733,148.743652   C239.253830,145.497147 234.386261,142.463272 229.261581,139.954544   C228.105209,139.388458 225.857620,140.311081 224.443192,141.124023   C204.539520,152.563782 184.636505,164.007599 164.886093,175.708313   C161.408875,177.768326 158.872482,177.689896 155.510376,175.659500   C146.135864,169.998230 136.549133,164.688354 126.186707,158.746948   C126.186707,165.203705 126.075569,170.915741 126.291588,176.615387   C126.329422,177.613495 127.545044,178.897949 128.547684,179.479767   C149.558502,191.671616 170.585129,203.837738 191.739822,215.776474   C193.106812,216.547928 195.856888,216.012131 197.418381,215.124924   C223.158203,200.499802 248.809570,185.719009 274.485291,170.981018   C275.605713,170.337891 276.769592,169.770584 278.421783,168.900009   C278.541321,170.417816 278.698608,171.492905 278.699738,172.568146   C278.715729,187.896973 278.556122,203.228165 278.787079,218.553513   C278.878601,224.625717 276.399780,228.559433 271.262238,231.494232   C247.696350,244.956131 224.189041,258.520844 200.698776,272.114471   C196.235413,274.697388 191.954865,274.771515 187.504898,272.203888   C163.708786,258.473541 139.913513,244.741547 116.071251,231.091690   C111.754135,228.620117 109.477013,225.147537 109.462181,220.191559   C109.450760,216.374115 109.459908,212.556610 109.459908,207.798416   C111.914627,209.131866 113.876518,210.139389 115.783295,211.242218   C140.258530,225.397903 164.755249,239.516968 189.160858,253.791779   C192.495697,255.742340 195.047073,256.072845 198.610596,253.965912   C218.373581,242.280914 238.283676,230.842361 258.240723,219.490540   C261.080200,217.875397 262.286407,216.154816 262.072205,212.850037   C261.764252,208.099228 261.993591,203.313599 261.993591,197.803146   C249.613052,204.933899 237.848099,211.705399 226.087875,218.485077   C216.432388,224.051407 206.736465,229.550201 197.163589,235.255325   C194.869553,236.622513 193.211975,236.639145 190.874237,235.277161   C164.853638,220.117401 138.731003,205.132538 112.749992,189.905792   C111.151482,188.968948 109.638855,186.426849 109.573578,184.579086   C109.250244,175.426544 109.499954,166.255539 109.401276,157.092621   C109.337311,151.153503 111.826202,147.127548 117.115005,144.250687   C126.765236,139.001434 136.187302,133.332718 146.265869,127.484802   C150.217987,125.103416 153.608780,123.076210 156.999588,121.049011  z"/>
</svg>